<!-- clear_all_FILL0_wght400_GRAD0_opsz24.svg -->
<svg fill="#da6262" width="48" height="48" viewBox="0 96 960 960" xmlns="http://www.w3.org/2000/svg">
  <path d="M720 616H240q-17 0-28.5-11.5T200 576q0-17 11.5-28.5T240 536h480q17 0 28.5 11.5T760 576q0 17-11.5 28.5T720 616Zm-80 160H160q-17 0-28.5-11.5T120 736q0-17 11.5-28.5T160 696h480q17 0 28.5 11.5T680 736q0 17-11.5 28.5T640 776Zm160-320H320q-17 0-28.5-11.5T280 416q0-17 11.5-28.5T320 376h480q17 0 28.5 11.5T840 416q0 17-11.5 28.5T800 456Z"/>
</svg>
