<!-- cached_FILL0_wght400_GRAD0_opsz24.svg -->
<svg fill="#CAC4D0" width="48" height="48" viewBox="0 96 960 960" xmlns="http://www.w3.org/2000/svg">
  <path d="M482 896q-134 0-228-93t-94-227v-7l-36 36q-11 11-28 11t-28-11q-11-11-11-28t11-28l104-104q6-6 13-8.5t15-2.5q8 0 15 2.5t13 8.5l104 104q11 11 11 28t-11 28q-11 11-28 11t-28-11l-36-36v7q0 100 70.5 170T482 816q20 0 39-3.5t38-10.5q10-4 21.5-2t19.5 10q18 18 14.5 38.5T588 877q-26 9-52.5 14t-53.5 5Zm278-178q-8 0-15-2.5t-13-8.5L628 603q-11-11-11-28t11-28q11-11 28-11t28 11l36 36v-7q0-100-70.5-170T478 336q-20 0-39 3.5T401 350q-10 4-21.5 2T360 342q-18-18-14.5-38.5T372 275q26-9 52.5-14t53.5-5q134 0 228 93t94 227v7l36-36q11-11 28-11t28 11q11 11 11 28t-11 28L788 707q-6 6-13 8.5t-15 2.5Z"/>
</svg>
