<!-- data_object_FILL0_wght400_GRAD0_opsz24.svg -->
<svg fill="#CAC4D0" width="48" height="48" viewBox="0 96 960 960" xmlns="http://www.w3.org/2000/svg">
  <path d="M600 896q-17 0-28.5-11.5T560 856q0-17 11.5-28.5T600 816h80q17 0 28.5-11.5T720 776v-80q0-38 22-69t58-44v-14q-36-13-58-44t-22-69v-80q0-17-11.5-28.5T680 336h-80q-17 0-28.5-11.5T560 296q0-17 11.5-28.5T600 256h80q50 0 85 35t35 85v80q0 17 11.5 28.5T840 496t28.5 11.5Q880 519 880 536v80q0 17-11.5 28.5T840 656t-28.5 11.5Q800 679 800 696v80q0 50-35 85t-85 35h-80Zm-320 0q-50 0-85-35t-35-85v-80q0-17-11.5-28.5T120 656t-28.5-11.5Q80 633 80 616v-80q0-17 11.5-28.5T120 496t28.5-11.5Q160 473 160 456v-80q0-50 35-85t85-35h80q17 0 28.5 11.5T400 296q0 17-11.5 28.5T360 336h-80q-17 0-28.5 11.5T240 376v80q0 38-22 69t-58 44v14q36 13 58 44t22 69v80q0 17 11.5 28.5T280 816h80q17 0 28.5 11.5T400 856q0 17-11.5 28.5T360 896h-80Z"/>
</svg>
