<!-- cookie_FILL0_wght400_GRAD0_opsz24.svg -->
<svg fill="#49454F" width="48" height="48" viewBox="0 96 960 960" xmlns="http://www.w3.org/2000/svg">
  <path d="M420 496q25 0 42.5-17.5T480 436q0-25-17.5-42.5T420 376q-25 0-42.5 17.5T360 436q0 25 17.5 42.5T420 496Zm-80 200q25 0 42.5-17.5T400 636q0-25-17.5-42.5T340 576q-25 0-42.5 17.5T280 636q0 25 17.5 42.5T340 696Zm260 40q17 0 28.5-11.5T640 696q0-17-11.5-28.5T600 656q-17 0-28.5 11.5T560 696q0 17 11.5 28.5T600 736ZM480 976q-83 0-156-31.5T197 859q-54-54-85.5-127T80 576q0-81 33.5-157.5t93-134.5Q266 226 348 196t180-18q15 2 23 12.5t9 28.5q2 64 47.5 109.5T716 376q21 1 32 12t12 34q2 42 25.5 69t65.5 41q14 5 21.5 14.5T880 570q2 83-29 157t-85 129.5Q712 912 638 944t-158 32Zm0-80q122 0 216.5-84T800 598q-50-22-78.5-60T683 453q-77-11-132-66t-68-132q-80-2-140.5 29t-101 79.5Q201 412 180.5 469T160 576q0 133 93.5 226.5T480 896Zm0-324Z"/>
</svg>
