<!-- text_snippet_FILL0_wght400_GRAD0_opsz24.svg -->
<svg fill="#49454F" width="48" height="48" viewBox="0 96 960 960" xmlns="http://www.w3.org/2000/svg">
  <path d="M200 856h560V489L567 296H200v560Zm0 80q-33 0-56.5-23.5T120 856V296q0-33 23.5-56.5T200 216h367q16 0 30.5 6t25.5 17l194 194q11 11 17 25.5t6 30.5v367q0 33-23.5 56.5T760 936H200Zm120-160h320q17 0 28.5-11.5T680 736q0-17-11.5-28.5T640 696H320q-17 0-28.5 11.5T280 736q0 17 11.5 28.5T320 776Zm0-160h320q17 0 28.5-11.5T680 576q0-17-11.5-28.5T640 536H320q-17 0-28.5 11.5T280 576q0 17 11.5 28.5T320 616Zm0-160h200q17 0 28.5-11.5T560 416q0-17-11.5-28.5T520 376H320q-17 0-28.5 11.5T280 416q0 17 11.5 28.5T320 456ZM200 856V296v560Z"/>
</svg>
