<!-- history_FILL0_wght400_GRAD0_opsz24.svg -->
<svg fill="#49454F" width="48" height="48" viewBox="0 96 960 960" xmlns="http://www.w3.org/2000/svg">
  <path d="m520 560 100 100q11 11 11 28t-11 28q-11 11-28 11t-28-11L452 604q-6-6-9-13.5t-3-15.5V416q0-17 11.5-28.5T480 376q17 0 28.5 11.5T520 416v144Zm-40 376q-121 0-217-71.5T134 678q-5-18 3.5-34t26.5-20q17-4 30.5 7.5T213 660q26 88 100.5 142T480 856q117 0 198.5-81.5T760 576q0-117-81.5-198.5T480 296q-69 0-129 32t-101 88h70q17 0 28.5 11.5T360 456q0 17-11.5 28.5T320 496H160q-17 0-28.5-11.5T120 456V296q0-17 11.5-28.5T160 256q17 0 28.5 11.5T200 296v54q51-64 124.5-99T480 216q75 0 140.5 28.5t114 77q48.5 48.5 77 114T840 576q0 75-28.5 140.5t-77 114q-48.5 48.5-114 77T480 936Z"/>
</svg>
