<!-- vpn_key_FILL0_wght400_GRAD0_opsz24.svg -->
<svg fill="#49454F" width="48" height="48" viewBox="0 96 960 960" xmlns="http://www.w3.org/2000/svg">
  <path d="M280 816q-100 0-170-70T40 576q0-100 70-170t170-70q66 0 121 33t87 87h352q33 0 56.5 23.5T920 536v80q0 33-23.5 56.5T840 696v40q0 33-23.5 56.5T760 816h-80q-33 0-56.5-23.5T600 736v-40H488q-32 54-87 87t-121 33Zm0-80q66 0 106-40.5t48-79.5h246v120h80V616h80v-80H434q-8-39-48-79.5T280 416q-66 0-113 47t-47 113q0 66 47 113t113 47Zm0-80q33 0 56.5-23.5T360 576q0-33-23.5-56.5T280 496q-33 0-56.5 23.5T200 576q0 33 23.5 56.5T280 656Zm0-80Z"/>
</svg>
