<!-- power_FILL0_wght400_GRAD0_opsz24.svg -->
<svg fill="#49454F" width="48" height="48" viewBox="0 96 960 960" xmlns="http://www.w3.org/2000/svg">
  <path d="M460 856h40v-74l140-140V456H320v186l140 140v74Zm-80-40L263 699q-11-11-17-25.5t-6-30.5V456q0-33 23.5-56.5T320 376h40l-40 40V256q0-17 11.5-28.5T360 216q17 0 28.5 11.5T400 256v120h160V256q0-17 11.5-28.5T600 216q17 0 28.5 11.5T640 256v160l-40-40h40q33 0 56.5 23.5T720 456v187q0 16-6 30.5T697 699L580 816v80q0 17-11.5 28.5T540 936H420q-17 0-28.5-11.5T380 896v-80Zm100-160Z"/>
</svg>
