<!-- arrow_circle_right_FILL0_wght400_GRAD0_opsz24.svg -->
<svg fill="#49454F" width="48" height="48" viewBox="0 96 960 960" xmlns="http://www.w3.org/2000/svg">
  <path d="m508 708 104-104q12-12 12-28t-12-28L507 443q-11-11-27.5-10.5T452 444q-11 11-11 28t11 28l36 36H359q-17 0-28 11.5T320 576q0 17 11.5 28.5T360 616h128l-37 37q-11 11-10.5 27.5T452 708q11 11 28 11t28-11Zm-28 268q-83 0-156-31.5T197 859q-54-54-85.5-127T80 576q0-83 31.5-156T197 293q54-54 127-85.5T480 176q83 0 156 31.5T763 293q54 54 85.5 127T880 576q0 83-31.5 156T763 859q-54 54-127 85.5T480 976Zm0-80q133 0 226.5-93.5T800 576q0-133-93.5-226.5T480 256q-133 0-226.5 93.5T160 576q0 133 93.5 226.5T480 896Zm0-320Z"/>
</svg>
