<!-- manage_search_FILL0_wght400_GRAD0_opsz24.svg -->
<svg fill="#49454F" width="48" height="48" viewBox="0 96 960 960" xmlns="http://www.w3.org/2000/svg">
  <path d="M120 456q-17 0-28.5-11.5T80 416q0-17 11.5-28.5T120 376h120q17 0 28.5 11.5T280 416q0 17-11.5 28.5T240 456H120Zm0 200q-17 0-28.5-11.5T80 616q0-17 11.5-28.5T120 576h120q17 0 28.5 11.5T280 616q0 17-11.5 28.5T240 656H120Zm676 172L670 702q-24 17-52.5 25.5T560 736q-83 0-141.5-58.5T360 536q0-83 58.5-141.5T560 336q83 0 141.5 58.5T760 536q0 29-8.5 57.5T726 646l126 126q11 11 11 28t-11 28q-11 11-28 11t-28-11ZM560 656q50 0 85-35t35-85q0-50-35-85t-85-35q-50 0-85 35t-35 85q0 50 35 85t85 35ZM120 856q-17 0-28.5-11.5T80 816q0-17 11.5-28.5T120 776h320q17 0 28.5 11.5T480 816q0 17-11.5 28.5T440 856H120Z"/>
</svg>
